# AST/ASF file generated using VICON BodyLanguage
# -----------------------------------------------
:version 1.10
:name VICON
:units
  mass 1.0
  length 0.45
  angle deg
:documentation
   .ast/.asf automatically generated from VICON data using
   VICON BodyBuilder and BodyLanguage model FoxedUp or BRILLIANT.MOD
:root
   order TX TY TZ RX RY RZ
   axis XYZ
   position 0 0 0  
   orientation 0 0 0 
:bonedata
  begin
     id 1 
     name lhipjoint
     direction 0.575328 -0.747301 0.332475 
     length 2.40933 
     axis 0 0 0  XYZ
  end
  begin
     id 2 
     name lfemur
     direction 0.34202 -0.939693 0  
     length 7.31453  
     axis 0 0 20  XYZ
    dof rx ry rz
    limits (-160.0 20.0)
           (-70.0 70.0)
           (-60.0 70.0)
  end
  begin
     id 3 
     name ltibia
     direction 0.34202 -0.939693 0   
     length 7.82185   
     axis 0 0 20   XYZ
    dof rx
    limits (-10.0 170.0)
  end
  begin
     id 4 
     name lfoot
     direction 0.0795993 -0.218697 0.972541   
     length 2.19173   
     axis -90 7.62852e-016 20   XYZ
    dof rx rz
    limits (-45.0 90.0)
           (-70.0 20.0)
  end
  begin
     id 5 
     name ltoes
     direction 1.53537e-011 -4.21894e-011 1   
     length 1.10023   
     axis -90 7.62852e-016 20   XYZ
    dof rx
    limits (-90.0 20.0)
  end
  begin
     id 6 
     name rhipjoint
     direction -0.513884 -0.783789 0.348708   
     length 2.29716  
     axis 0 0 0  XYZ 
  end
  begin
     id 7 
     name rfemur
     direction -0.34202 -0.939693 0   
     length 7.59573   
     axis 0 0 -20   XYZ
    dof rx ry rz
    limits (-160.0 20.0)
           (-70.0 70.0)
           (-70.0 60.0)
  end
  begin
     id 8 
     name rtibia
     direction -0.34202 -0.939693 0   
     length 7.66402   
     axis 0 0 -20   XYZ
    dof rx
    limits (-10.0 170.0)
 end
 begin
     id 9 
     name rfoot
     direction -0.137793 -0.378584 0.915253   
     length 2.27056  
     axis -90 -7.62852e-016 -20   XYZ
    dof rx rz
    limits (-45.0 90.0)
           (-20.0 70.0)
  end
  begin
     id 10 
     name rtoes
     direction -1.53493e-011 -4.22159e-011 1   
     length 1.11766   
     axis -90 -7.62852e-016 -20   XYZ
    dof rx
    limits (-90.0 20.0)
  end
  begin
     id 11 
     name lowerback
     direction -0.00732775 0.998356 -0.05685   
     length 2.16513   
     axis 0 0 0   XYZ
    dof rx ry rz
    limits (-20.0 45.0)
           (-30.0 30.0)
           (-30.0 30.0)
  end
  begin
     id 12 
     name upperback
     direction 0.0218081 0.999627 -0.0164647   
     length 2.16755   
     axis 0 0 0   XYZ
    dof rx ry rz
    limits (-20.0 45.0)
           (-30.0 30.0)
           (-30.0 30.0)
  end
  begin
     id 13 
     name thorax
     direction 0.02365 0.999661 0.0108914   
     length 2.16932   
     axis 0 0 0   XYZ
    dof rx ry rz
    limits (-20.0 45.0)
           (-30.0 30.0)
           (-30.0 30.0)
  end
  begin
     id 14 
     name lowerneck
     direction -0.0523929 0.978385 0.200044   
     length 1.63877   
     axis 0 0 0   XYZ
    dof rx ry rz
    limits (-20.0 45.0)
           (-30.0 30.0)
           (-30.0 30.0)
  end
  begin
     id 15 
     name upperneck
     direction 0.0448674 0.981321 -0.187074   
     length 1.69014   
     axis 0 0 0   XYZ
    dof rx ry rz
    limits (-20.0 45.0)
           (-30.0 30.0)
           (-30.0 30.0)
  end
  begin
     id 16
     name head
     direction 0.0199089 0.996118 -0.0857429  
     length 1.70094  
     axis 0 0 0   XYZ
    dof rx ry rz
    limits (-20.0 45.0)
           (-30.0 30.0)
           (-30.0 30.0)
  end
  begin
     id 17 
     name lclavicle
     direction 0.940366 0.30191 -0.156722  
     length 3.37521  
     axis 0 0 0   XYZ
    dof ry rz
    limits (-20.0 10.0)
           (0.0 20.0)
  end
  begin
     id 18 
     name lhumerus
     direction 1 -4.4897e-011 -1.7911e-027   
     length 5.25287   
     axis 180 -30 -90   XYZ
    dof rx ry rz
    limits (-60.0 90.0)
           (-90.0 90.0)
           (-90.0 90.0)
  end
  begin
     id 19
     name lradius
     direction 1 -4.48951e-011 1.04424e-027   
     length 3.51014   
     axis 180 -30 -90   XYZ
    dof rx
    limits (-10.0 170.0)
  end
  begin
     id 20
     name lwrist
     direction 1 -4.48997e-011 -9.5942e-028   
     length 1.75507   
     axis 8.48502e-016 90 90   XYZ
    dof ry
    limits (-180.0 0.0)
 end
  begin
     id 21 
     name lhand
     direction 1 -4.48831e-011 -1.90777e-027   
     length 0.706179   
     axis 1.22306e-015 90 90   XYZ
    dof rx rz
    limits (-90.0 90.0)
           (-45.0 45.0)
  end
  begin
     id 22 
     name lfingers
     direction 1 -4.49108e-011 -3.85244e-027   
     length 0.569339   
     axis 2.44611e-015 90 90   XYZ
    dof rx
    limits (0.0 90.0)
  end
  begin
     id 23
     name lthumb
     direction 0.707107 -6.34953e-011 0.707107   
     length 0.817461   
     axis -90 45 -1.62303e-014   XYZ
    dof rx rz
    limits (-45.0 45.0)
           (-45.0 45.0)
  end
  begin
     id 24 
     name rclavicle
     direction -0.905329 0.382405 -0.184787   
     length 3.30787  
     axis 0 0 0   XYZ 
    dof ry rz
    limits (-10.0 20.0)
           (-20.0 0.0)
  end
  begin
     id 25 
     name rhumerus
     direction -1 -4.48953e-011 -9.15316e-029  
     length 5.28721   
     axis 180 30 90   XYZ
    dof rx ry rz
    limits (-90.0 60.0)
           (-90.0 90.0)
           (-90.0 90.0)
  end
  begin
     id 26 
     name rradius
     direction -1 -4.48987e-011 9.37824e-028   
     length 3.50544   
     axis 180 30 90   XYZ
    dof rx
    limits (-10.0 170.0)
  end
  begin
     id 27 
     name rwrist
     direction -1 -4.48967e-011 -9.58414e-028   
     length 1.75272   
     axis 8.48502e-016 -90 -90   XYZ
    dof ry
    limits (-180.0 0.0)
  end
  begin
     id 28
     name rhand
     direction -1 -4.48904e-011 -1.91266e-027   
     length 0.884996   
     axis 1.22306e-015 -90 -90   XYZ
    dof rx rz
    limits (-90.0 90.0)
           (-45.0 45.0)
  end
  begin
     id 29
     name rfingers
     direction -1 -4.4909e-011 -3.85015e-027   
     length 0.713507   
     axis 2.44611e-015 -90 -90   XYZ
    dof rx
    limits (0.0 90.0)
  end
  begin
     id 30
     name rthumb
     direction -0.707107 -6.34853e-011 0.707107   
     length 1.02446   
     axis -90 -45 1.62303e-014   XYZ
    dof rx rz
    limits (-45.0 45.0)
           (-45.0 45.0)
  end
:hierarchy
  begin
    root lhipjoint rhipjoint lowerback
    lhipjoint lfemur
    lfemur ltibia
    ltibia lfoot
    lfoot ltoes
    rhipjoint rfemur
    rfemur rtibia
    rtibia rfoot
    rfoot rtoes
    lowerback upperback
    upperback thorax
    thorax lowerneck lclavicle rclavicle
    lowerneck upperneck
    upperneck head
    lclavicle lhumerus
    lhumerus lradius
    lradius lwrist
    lwrist lhand lthumb
    lhand lfingers
    rclavicle rhumerus
    rhumerus rradius
    rradius rwrist
    rwrist rhand rthumb
    rhand rfingers
  end

#!OML:ASF F:\twosubjects\two\Thursday\Session 1\justin.ASF
:FULLY-SPECIFIED
:DEGREES
193
root 7.36304 9.37194 -21.4485 -24.7102 -2.75548 0.392682
lowerback 37.7621 1.62722 -0.991655
upperback 14.647 1.72125 1.45585
thorax -2.43383 0.71876 1.4613
lowerneck -16.827 -3.2212 -8.96077
upperneck -4.55073 -2.74923 8.70153
head 1.55387 -1.00608 3.94729
rclavicle 1.39149e-015 5.56597e-015
rhumerus 19.176 36.129 -72.9544
rradius 62.7106
rwrist 7.30712
rhand 12.5563 7.31669
rfingers 7.12502
rthumb 37.5466 -18.6045
lclavicle 1.39149e-015 5.56597e-015
lhumerus 21.82 -39.6104 71.3199
lradius 60.6223
lwrist -32.8177
lhand 20.6861 39.5321
lfingers 7.12502
lthumb 45.1736 62.9629
rfemur -68.3751 -17.6535 7.78763
rtibia 86.9604
rfoot 6.02387 4.6514
rtoes -8.41019
lfemur -67.4085 19.2013 -4.84752
ltibia 88.8998
lfoot 1.88668 -17.712
ltoes -8.58071
194
root 7.36167 9.3719 -21.446 -24.6469 -2.79367 0.459227
lowerback 37.8168 1.74316 -1.19048
upperback 14.5371 1.8014 1.5405
thorax -2.5826 0.74644 1.62349
lowerneck -17.1474 -3.29995 -8.61882
upperneck -4.44229 -2.88928 8.23179
head 1.62761 -1.08773 3.73358
rclavicle -5.1684e-015 1.59028e-015
rhumerus 18.8474 36.1902 -73.0355
rradius 62.7226
rwrist 7.29995
rhand 11.868 7.25647
rfingers 7.12502
rthumb 36.8959 -18.8348
lclavicle -5.1684e-015 1.59028e-015
lhumerus 21.5959 -39.6444 71.5871
lradius 60.6107
lwrist -32.8797
lhand 20.484 39.4817
lfingers 7.12502
lthumb 44.9857 62.9869
rfemur -68.4811 -17.6351 7.779
rtibia 86.9457
rfoot 6.10793 4.67652
rtoes -8.31876
lfemur -67.4804 19.3084 -4.90576
ltibia 88.9328
lfoot 1.55245 -17.8079
ltoes -9.32945
195
root 7.36174 9.3748 -21.4457 -24.6324 -2.80031 0.581512
lowerback 37.9734 1.90498 -1.51919
upperback 14.4067 1.8976 1.71532
thorax -2.79447 0.773058 1.94001
lowerneck -17.3552 -3.38558 -8.57748
upperneck -4.44987 -2.98885 7.93371
head 1.65434 -1.14304 3.62615
rclavicle -1.80894e-014 -2.3059e-014
rhumerus 18.4709 36.2611 -73.0103
rradius 62.767
rwrist 7.46695
rhand 11.5955 7.2355
rfingers 7.12502
rthumb 36.638 -18.9217
lclavicle -1.80894e-014 -2.3059e-014
lhumerus 21.3603 -39.6578 71.9958
lradius 60.5998
lwrist -32.8811
lhand 20.2691 39.5499
lfingers 7.12502
lthumb 44.7857 63.1334
rfemur -68.5177 -17.5886 7.68942
rtibia 86.9201
rfoot 6.07317 4.70359
rtoes -8.58675
lfemur -67.4755 19.3168 -5.00221
ltibia 88.9395
lfoot 1.5784 -17.5932
ltoes -8.27097
196
root 7.36172 9.37906 -21.4444 -24.5957 -2.85136 0.602966
lowerback 38.0034 1.97525 -1.62381
upperback 14.3555 1.95345 1.80788
thorax -2.86927 0.792367 2.07094
lowerneck -17.4003 -3.40416 -8.63882
upperneck -4.80434 -2.98201 7.86978
head 1.55219 -1.13938 3.6189
rclavicle 3.37934e-015 8.74653e-015
rhumerus 18.476 36.4067 -72.8047
rradius 62.7546
rwrist 7.4149
rhand 11.7962 7.41296
rfingers 7.12502
rthumb 36.8279 -18.6958
lclavicle 3.37934e-015 8.74653e-015
lhumerus 21.2873 -39.655 72.1397
lradius 60.6153
lwrist -32.8091
lhand 20.2315 39.6939
lfingers 7.12502
lthumb 44.7507 63.291
rfemur -68.5582 -17.5627 7.71842
rtibia 86.9181
rfoot 5.95581 4.71729
rtoes -8.71716
lfemur -67.4487 19.3524 -4.99822
ltibia 88.9002
lfoot 1.86986 -17.4096
ltoes -7.65454
197
root 7.36102 9.38169 -21.4423 -24.5549 -2.88572 0.589652
lowerback 38.0118 1.98217 -1.59199
upperback 14.289 1.97298 1.80082
thorax -2.94498 0.80467 2.03907
lowerneck -17.398 -3.38567 -8.44577
upperneck -5.12776 -2.97755 7.62947
head 1.44472 -1.14647 3.51561
rclavicle 3.97569e-016 -3.97569e-016
rhumerus 18.489 36.5567 -72.679
rradius 62.7965
rwrist 7.26914
rhand 11.9436 7.49616
rfingers 7.12502
rthumb 36.9674 -18.5767
lclavicle 3.97569e-016 -3.97569e-016
lhumerus 21.1759 -39.6773 72.2671
lradius 60.4913
lwrist -32.86
lhand 20.2816 39.6302
lfingers 7.12502
lthumb 44.7973 63.2091
rfemur -68.5845 -17.5595 7.75146
rtibia 86.9225
rfoot 5.90247 4.69103
rtoes -8.59107
lfemur -67.4368 19.3761 -4.97346
ltibia 88.8768
lfoot 1.77967 -17.6513
ltoes -8.6345
198
root 7.3618 9.38169 -21.4414 -24.5001 -2.78098 0.613044
lowerback 38.1073 1.94627 -1.57985
upperback 14.1069 1.93341 1.77587
thorax -3.17242 0.790575 2.01592
lowerneck -17.1085 -3.37133 -8.50051
upperneck -5.47206 -2.95794 7.6747
head 1.29959 -1.13947 3.54408
rclavicle 1.55052e-014 -6.75868e-015
rhumerus 18.3276 36.7399 -72.6251
rradius 62.8712
rwrist 7.23585
rhand 11.9933 7.46754
rfingers 7.12502
rthumb 37.0143 -18.5932
lclavicle 1.55052e-014 -6.75868e-015
lhumerus 20.8557 -39.7698 72.5409
lradius 60.3641
lwrist -32.9607
lhand 20.1898 39.553
lfingers 7.12502
lthumb 44.7118 63.1652
rfemur -68.6224 -17.6863 7.68506
rtibia 86.9269
rfoot 5.98351 4.70647
rtoes -8.22901
lfemur -67.5445 19.2541 -5.06128
ltibia 88.9136
lfoot 1.82543 -17.7098
ltoes -8.21782
199
root 7.36534 9.37977 -21.4409 -24.3947 -2.62968 0.528708
lowerback 38.1797 1.81222 -1.39061
upperback 13.9079 1.83434 1.7219
thorax -3.40355 0.75577 1.89171
lowerneck -16.8649 -3.32203 -8.87425
upperneck -5.73078 -2.83607 8.23103
head 1.1973 -1.06182 3.78895
rclavicle -2.98177e-015 -8.34896e-015
rhumerus 18.0875 36.821 -72.7502
rradius 62.7608
rwrist 7.40636
rhand 12.005 7.63597
rfingers 7.12502
rthumb 37.0254 -18.4219
lclavicle -2.98177e-015 -8.34896e-015
lhumerus 20.586 -39.878 72.6755
lradius 60.3127
lwrist -32.9821
lhand 20.1426 39.5977
lfingers 7.12502
lthumb 44.6679 63.2269
rfemur -68.7051 -17.9024 7.71825
rtibia 86.9388
rfoot 6.07112 4.75289
rtoes -8.39119
lfemur -67.7852 19.0746 -5.09444
ltibia 88.9954
lfoot 1.55456 -17.6869
ltoes -9.08175
200
root 7.36927 9.38018 -21.4416 -24.2743 -2.61859 0.342968
lowerback 38.205 1.65569 -1.03121
upperback 13.7456 1.7621 1.60776
thorax -3.5746 0.740991 1.60817
lowerneck -17.0833 -3.28153 -8.82824
upperneck -5.5915 -2.77923 8.42851
head 1.27151 -1.02415 3.84462
rclavicle -4.37326e-015 -3.57812e-015
rhumerus 17.6582 36.6987 -73.245
rradius 62.7375
rwrist 7.6323
rhand 11.8972 7.66226
rfingers 7.12502
rthumb 36.9235 -18.4219
lclavicle -4.37326e-015 -3.57812e-015
lhumerus 20.4633 -40.0467 72.5566
lradius 60.2015
lwrist -32.8994
lhand 19.7823 39.8582
lfingers 7.12502
lthumb 44.3322 63.616
rfemur -68.8368 -17.9585 7.94223
rtibia 86.9324
rfoot 6.09787 4.71635
rtoes -9.29744
lfemur -67.9685 18.9799 -4.92851
ltibia 89.075
lfoot 1.17095 -17.8003
ltoes -10.893
201
root 7.37042 9.37941 -21.4389 -24.2713 -2.63867 0.277225
lowerback 38.2921 1.56984 -0.835794
upperback 13.6192 1.71697 1.48587
thorax -3.73061 0.732229 1.39173
lowerneck -17.2984 -3.28133 -8.51565
upperneck -5.54536 -2.81987 8.21799
head 1.31032 -1.05062 3.72421
rclavicle -3.77691e-015 -1.31198e-014
rhumerus 17.344 36.6242 -73.6236
rradius 62.9099
rwrist 7.73613
rhand 12.2157 7.47565
rfingers 7.12502
rthumb 37.2247 -18.5304
lclavicle -3.77691e-015 -1.31198e-014
lhumerus 20.2482 -40.1559 72.5002
lradius 60.1217
lwrist -32.8489
lhand 18.9348 39.9629
lfingers 7.12502
lthumb 43.5415 64.0147
rfemur -68.8886 -17.9657 8.06723
rtibia 86.9759
rfoot 6.09491 4.79832
rtoes -10.7368
lfemur -67.938 18.9446 -4.82637
ltibia 89.1383
lfoot 1.27101 -17.5946
ltoes -11.324
202
root 7.37289 9.37094 -21.4284 -24.3353 -2.65373 0.228076
lowerback 38.2443 1.5375 -0.731885
upperback 13.6219 1.71259 1.46037
thorax -3.70901 0.735003 1.3133
lowerneck -17.3937 -3.25965 -8.39918
upperneck -5.75979 -2.79431 8.08089
head 1.25222 -1.04126 3.66551
rclavicle -5.1684e-015 3.57812e-015
rhumerus 17.3163 36.5937 -73.6588
rradius 63.0196
rwrist 7.7483
rhand 12.6474 7.39885
rfingers 7.12502
rthumb 37.6327 -18.4994
lclavicle -5.1684e-015 3.57812e-015
lhumerus 20.1976 -40.1478 72.5639
lradius 60.0184
lwrist -32.9484
lhand 18.7472 39.6946
lfingers 7.12502
lthumb 43.3663 63.8098
rfemur -68.8902 -18.0744 8.15691
rtibia 87.1004
rfoot 5.98552 5.0483
rtoes -12.1119
lfemur -67.8782 18.9815 -4.78477
ltibia 89.2654
lfoot 0.882452 -17.2965
ltoes -13.6233
203
root 7.37484 9.3629 -21.4202 -24.4566 -2.63014 0.26677
lowerback 38.1173 1.58683 -0.819957
upperback 13.6895 1.74729 1.51348
thorax -3.59921 0.746616 1.40519
lowerneck -17.4874 -3.23051 -8.47777
upperneck -5.84377 -2.72902 8.07343
head 1.23585 -1.00517 3.68057
rclavicle -1.23246e-014 -8.74653e-015
rhumerus 17.2223 36.4878 -73.7536
rradius 62.9832
rwrist 7.96726
rhand 12.5299 7.49455
rfingers 7.12502
rthumb 37.5218 -18.4332
lclavicle -1.23246e-014 -8.74653e-015
lhumerus 20.3301 -40.1306 72.6399
lradius 59.7835
lwrist -33.1612
lhand 19.1758 39.2668
lfingers 7.12502
lthumb 43.7665 63.2363
rfemur -68.8463 -18.1715 8.11657
rtibia 87.2394
rfoot 5.75631 5.14598
rtoes -12.5132
lfemur -67.77 18.9601 -4.79038
ltibia 89.4218
lfoot -0.199926 -17.4054
ltoes -18.3299
